{"title":"Nani Moretti - Bianca (1984)","uid":7074976,"size":1149659714,"categoryP":"video","categoryS":"movies","magnet":"?xt=urn:btih:128c491502b5ab960ac40f54bf12e5965b5a3c4e&amp;dn=Nani+Moretti+-+Bianca+%281984%29&amp;tr=udp%3A%2F%2Ftracker.openbittorrent.com%3A80&amp;tr=udp%3A%2F%2Fopen.demonii.com%3A1337&amp;tr=udp%3A%2F%2Ftracker.coppersurfer.tk%3A6969&amp;tr=udp%3A%2F%2Fexodus.desync.com%3A6969","seeders":3,"leechers":1,"uploader":"Aaaameida","files":-1,"time":1330803754,"description":"Michele is a mathematics professor who just started a new job in a school with some peculiar teaching methods. After a woman in his neighborhood is murdered, Michele meets beautiful colleague Bianca, and a relationship begins between the two. Where is this relationship heading, and will Michele be able to help the police catch the murderer?\n\nScreenshots: &lt;a href=&quot;\nhttp://img805.imageshack.us/img805/4825/bscap0002w.jpg&quot; rel=&quot;nofollow&quot; target=&quot;_NEW&quot;&gt;\nhttp://img805.imageshack.us/img805/4825/bscap0002w.jpg&lt;/a&gt; &lt;a href=&quot;\nhttp://img714.imageshack.us/img714/9049/bscap0005ub.jpg&quot; rel=&quot;nofollow&quot; target=&quot;_NEW&quot;&gt;\nhttp://img714.imageshack.us/img714/9049/bscap0005ub.jpg&lt;/a&gt; &lt;a href=&quot;\nhttp://img210.imageshack.us/img210/8575/bscap0003vo.jpg&quot; rel=&quot;nofollow&quot; target=&quot;_NEW&quot;&gt;\nhttp://img210.imageshack.us/img210/8575/bscap0003vo.jpg&lt;/a&gt; &lt;a href=&quot;\nhttp://img39.imageshack.us/img39/2992/bscap0007sh.jpg&quot; rel=&quot;nofollow&quot; target=&quot;_NEW&quot;&gt;\nhttp://img39.imageshack.us/img39/2992/bscap0007sh.jpg&lt;/a&gt;\n\nSUBTITLES: French, Spanish and Portuguese\n\nwww.imdb.com/title/tt0085240/ \n\n\n      Format : AVI\n      Format/Info : Audio Video Interleave\n      File size : 1.07 GiB\n      Duration : 1h 33mn\n      Overall bit rate : 1 636 Kbps\n      Writing application : VirtualDubMod 1.5.1.1a (build 1155/release)\n      Writing library : VirtualDubMod build 1155/release\n   Video #0\n      ID : 0\n      Format : MPEG-4 Visual\n      Format profile : AdvancedSimple@L5\n      Format settings, BVOP : Yes\n      Format settings, QPel : No\n      Format settings, GMC : No warppoints\n      Format settings, Matrix : Default (MPEG)\n      Codec ID : XVID\n      Codec ID/Hint : XviD\n      Duration : 1h 33mn\n      Bit rate : 1 434 Kbps\n      Width : 720 pixels\n      Height : 384 pixels\n      Display aspect ratio : 1.875\n      Frame rate : 25.000 fps\n      Resolution : 24 bits\n      Colorimetry : 4:2:0\n      Scan type : Progressive\n      Bits/(Pixel*Frame) : 0.208\n      Stream size : 961 MiB (88%)\n      Writing library : XviD 1.2.0.dev47 (UTC 2006-11-01)\n   Audio #1\n      ID : 1\n      Format : AC-3\n      Format/Info : Audio Coding 3\n      Codec ID : 2000\n      Duration : 1h 33mn\n      Bit rate mode : Constant\n      Bit rate : 192 Kbps\n      Channel(s) : 2 channels\n      Channel positions : L R\n      Sampling rate : 48.0 KHz\n      Stream size : 129 MiB (12%)\n      Alignment : Split accross interleaves\n      Interleave, duration : 40 ms (1.00 video frame)\n      Interleave, preload duration : 500 ms","torrent":{"xt":"urn:btih:128c491502b5ab960ac40f54bf12e5965b5a3c4e","amp;dn":"Nani+Moretti+-+Bianca+%281984%29","amp;tr":["udp%3A%2F%2Ftracker.openbittorrent.com%3A80","udp%3A%2F%2Fopen.demonii.com%3A1337","udp%3A%2F%2Ftracker.coppersurfer.tk%3A6969","udp%3A%2F%2Fexodus.desync.com%3A6969"],"infoHash":"128c491502b5ab960ac40f54bf12e5965b5a3c4e","infoHashBuffer":{"type":"Buffer","data":[18,140,73,21,2,181,171,150,10,196,15,84,191,18,229,150,91,90,60,78]},"announce":[],"urlList":[]}}